<svg width="424" height="80" viewBox="0 0 424 80" fill="none" xmlns="http://www.w3.org/2000/svg">
<g clip-path="url(#clip0_11872_4021)">
<path d="M99.3022 19.3426V20.2113H93.6455V62.5546H99.3022V63.4233H79.0724V62.5546H84.7291V20.2113H79.0724V19.3426H99.3022Z" fill="#730E26"/>
<path d="M106.493 49.6783C106.577 50.1761 106.717 50.8241 106.922 51.6271C107.127 52.4348 107.426 53.2989 107.813 54.2287C108.2 55.1585 108.694 56.1071 109.287 57.0744C109.879 58.0465 110.606 58.9434 111.469 59.7652C112.411 60.7138 113.325 61.437 114.202 61.93C115.083 62.4278 115.923 62.7847 116.725 63.0148C117.522 63.2402 118.282 63.367 119 63.3858C119.719 63.4093 120.385 63.4186 120.996 63.4186C123.169 63.4186 124.951 63.0805 126.345 62.3996C127.74 61.7187 128.835 60.8828 129.633 59.892C130.43 58.9012 130.995 57.8587 131.326 56.7645C131.652 55.6703 131.815 54.7124 131.815 53.8859C131.815 52.3597 131.456 51.1012 130.738 50.1104C130.02 49.1195 129.069 48.293 127.879 47.6356C126.69 46.9735 125.338 46.4193 123.822 45.9638C122.307 45.5083 120.749 45.0434 119.15 44.5692C117.55 44.0949 115.992 43.536 114.477 42.8974C112.961 42.2587 111.609 41.4323 110.42 40.4179C109.231 39.4083 108.279 38.1592 107.561 36.6753C106.843 35.1867 106.484 33.3318 106.484 31.1012C106.484 29.4529 106.852 27.861 107.589 26.3348C108.326 24.8086 109.352 23.4562 110.662 22.2822C111.973 21.1082 113.544 20.155 115.368 19.4365C117.191 18.7133 119.168 18.3517 121.299 18.3517C122.652 18.3517 123.841 18.4738 124.867 18.7227C125.893 18.9716 126.793 19.2299 127.572 19.4975C128.35 19.7652 129.036 20.0235 129.633 20.2724C130.225 20.5212 130.771 20.6433 131.26 20.6433C131.834 20.6433 132.216 20.5541 132.398 20.3663C132.58 20.1831 132.776 19.8403 132.981 19.3473H133.965V31.1106H133.168C132.673 29.6642 132.156 28.2414 131.601 26.8373C131.046 25.4332 130.342 24.1653 129.479 23.0289C128.621 21.8925 127.534 20.9768 126.219 20.2771C124.909 19.5727 123.249 19.2252 121.239 19.2252C119.597 19.2252 118.156 19.4506 116.907 19.9061C115.657 20.3616 114.598 20.958 113.74 21.6999C112.877 22.4419 112.224 23.2684 111.772 24.1794C111.32 25.0857 111.096 26.0155 111.096 26.9641C111.096 28.4104 111.474 29.6032 112.234 30.5518C112.989 31.5004 113.983 32.3174 115.214 32.9984C116.445 33.6793 117.849 34.2663 119.425 34.764C121.001 35.2571 122.619 35.7737 124.279 36.309C125.939 36.8443 127.558 37.436 129.139 38.0747C130.715 38.7133 132.118 39.5304 133.35 40.5212C134.581 41.5121 135.574 42.7096 136.33 44.1136C137.09 45.5177 137.467 47.2505 137.467 49.3167C137.467 51.383 137.057 53.2566 136.236 55.074C135.416 56.8913 134.259 58.4785 132.762 59.8403C131.265 61.2022 129.484 62.2869 127.413 63.0899C125.343 63.8929 123.039 64.2968 120.497 64.2968C119.229 64.2968 117.965 64.17 116.715 63.9258C115.466 63.6769 114.295 63.4186 113.208 63.151C112.122 62.8833 111.161 62.625 110.322 62.3761C109.482 62.1273 108.857 62.0052 108.447 62.0052C107.874 62.0052 107.463 62.0991 107.216 62.2822C106.969 62.4701 106.745 62.8504 106.54 63.428H105.556V49.683H106.493V49.6783Z" fill="#730E26"/>
<path d="M153.281 45.0998H167.42L160.164 28.1991L153.276 45.0998H153.281ZM145.167 62.5546L163.489 17.6098H165.149L184.516 62.5546H189.805V63.4233H169.146V62.5546H174.863L167.733 45.9638H152.978L146.151 62.5546H151.621V63.4233H140V62.5546H145.167Z" fill="#730E26"/>
<path d="M48.434 25.729C46.8531 27.6168 45.1976 29.9977 43.5934 32.9702C52.2766 34.8579 58.5815 37.2576 62.5547 40.1972V16.6095C61.3655 16.7645 54.9674 17.9244 48.4293 25.729" fill="#112549"/>
<path d="M30.9136 30.8007C33.3899 31.1341 35.7309 31.491 37.9553 31.8807C42.9498 21.93 48.9796 16.7457 53.8062 14.0502C37.0133 8.72036 31.282 0 31.282 0C31.282 0 23.6154 11.6835 0 16.2714V28.4292C6.09505 28.603 18.565 29.1477 30.9183 30.8054" fill="#F3BA1A"/>
<path d="M41.1637 38.0653C37.3118 47.2223 34.178 60.5823 33.707 80C54.5477 70.3827 60.3396 55.0176 61.9438 47.5699C60.3816 43.8741 52.9947 40.5212 41.1637 38.0653Z" fill="#066F3E"/>
<path d="M35.6469 37.0369C33.9168 36.7504 32.1121 36.478 30.2421 36.2292C18.1965 34.6091 6.0251 34.0737 0 33.9V43.2449C0 43.2449 0.522299 66.6166 28.2788 79.737C28.7498 60.7279 31.6784 46.9782 35.6469 37.0416" fill="#730E26"/>
<path d="M234.531 20.0376H232.824V36.2949H234.531V20.0376Z" fill="#112549"/>
<path d="M250.601 29.2087V36.2902H248.964V29.3684C248.964 26.7903 247.626 25.4661 245.322 25.4661C242.715 25.4661 241.079 27.0909 241.079 29.8803V36.2902H239.442V24.0761H241.009V26.3301C241.885 24.8415 243.522 23.9822 245.621 23.9822C248.573 23.9822 250.601 25.7009 250.601 29.2087Z" fill="#112549"/>
<path d="M261.434 35.5483C260.786 36.1305 259.821 36.4076 258.874 36.4076C256.589 36.4076 255.325 35.1068 255.325 32.8528V25.4661H253.157V24.0714H255.325V21.3994H256.962V24.0714H260.651V25.4661H256.962V32.7589C256.962 34.2005 257.699 34.9894 259.061 34.9894C259.727 34.9894 260.399 34.7828 260.861 34.3649L261.439 35.5483H261.434Z" fill="#112549"/>
<path d="M264.825 29.4623H273.428C273.219 27.0721 271.489 25.4003 269.115 25.4003C266.741 25.4003 265.034 27.0721 264.825 29.4623ZM274.972 30.6927H264.825C265.011 33.2472 266.946 34.9425 269.6 34.9425C271.078 34.9425 272.389 34.4071 273.312 33.3412L274.235 34.4118C273.153 35.7126 271.47 36.4076 269.553 36.4076C265.771 36.4076 263.188 33.8061 263.188 30.1855C263.188 26.5649 265.701 23.9869 269.115 23.9869C272.528 23.9869 274.995 26.518 274.995 30.1855C274.995 30.3264 274.972 30.5095 274.972 30.6973" fill="#112549"/>
<path d="M284.443 23.9822V25.5835C284.303 25.5835 284.168 25.56 284.052 25.56C281.515 25.56 279.971 27.1848 279.971 30.0634V36.2855H278.334V24.0714H279.901V26.4663C280.661 24.8415 282.21 23.9822 284.443 23.9822Z" fill="#112549"/>
<path d="M298.741 29.2087V36.2902H297.104V29.3684C297.104 26.7903 295.766 25.4661 293.462 25.4661C290.856 25.4661 289.219 27.0909 289.219 29.8803V36.2902H287.582V24.0761H289.149V26.3301C290.025 24.8415 291.662 23.9822 293.761 23.9822C296.713 23.9822 298.741 25.7009 298.741 29.2087Z" fill="#112549"/>
<path d="M310.703 32.6227V30.6269H306.898C304.547 30.6269 303.782 31.5567 303.782 32.8105C303.782 34.224 304.911 35.1068 306.851 35.1068C308.791 35.1068 310.055 34.224 310.703 32.6227ZM312.34 28.7204V36.2902H310.773V34.3837C310.036 35.6375 308.604 36.4029 306.599 36.4029C303.857 36.4029 302.174 34.9613 302.174 32.8481C302.174 30.965 303.372 29.3872 306.856 29.3872H310.708V28.6452C310.708 26.5555 309.532 25.4191 307.271 25.4191C305.704 25.4191 304.225 25.9779 303.237 26.8608L302.5 25.6304C303.722 24.5832 305.522 23.9822 307.434 23.9822C310.572 23.9822 312.344 25.56 312.344 28.7204" fill="#112549"/>
<path d="M323.178 35.5483C322.529 36.1305 321.564 36.4076 320.617 36.4076C318.332 36.4076 317.068 35.1068 317.068 32.8528V25.4661H314.9V24.0714H317.068V21.3994H318.705V24.0714H322.394V25.4661H318.705V32.7589C318.705 34.2005 319.442 34.9894 320.804 34.9894C321.471 34.9894 322.142 34.7828 322.604 34.3649L323.182 35.5483H323.178Z" fill="#112549"/>
<path d="M326.148 24.0761H327.785V36.2902H326.148V24.0761ZM325.78 20.2207C325.78 19.5962 326.311 19.0608 326.978 19.0608C327.645 19.0608 328.177 19.5727 328.177 20.1972C328.177 20.8687 327.668 21.4041 326.978 21.4041C326.288 21.4041 325.78 20.8688 325.78 20.2207Z" fill="#112549"/>
<path d="M341.803 30.1855C341.803 27.3304 339.891 25.4238 337.308 25.4238C334.724 25.4238 332.789 27.3257 332.789 30.1855C332.789 33.0453 334.724 34.9472 337.308 34.9472C339.891 34.9472 341.803 33.0406 341.803 30.1855ZM331.129 30.1855C331.129 26.5602 333.759 23.9822 337.308 23.9822C340.856 23.9822 343.463 26.5602 343.463 30.1855C343.463 33.8108 340.856 36.4076 337.308 36.4076C333.759 36.4076 331.129 33.8061 331.129 30.1855Z" fill="#112549"/>
<path d="M357.966 29.2087V36.2902H356.33V29.3684C356.33 26.7903 354.991 25.4661 352.687 25.4661C350.081 25.4661 348.444 27.0909 348.444 29.8803V36.2902H346.807V24.0761H348.374V26.3301C349.25 24.8415 350.887 23.9822 352.986 23.9822C355.938 23.9822 357.966 25.7009 357.966 29.2087Z" fill="#112549"/>
<path d="M369.933 32.6227V30.6269H366.127C363.777 30.6269 363.012 31.5567 363.012 32.8105C363.012 34.224 364.141 35.1068 366.081 35.1068C368.021 35.1068 369.284 34.224 369.933 32.6227ZM371.569 28.7204V36.2902H370.003V34.3837C369.266 35.6375 367.834 36.4029 365.829 36.4029C363.087 36.4029 361.403 34.9613 361.403 32.8481C361.403 30.965 362.602 29.3872 366.085 29.3872H369.937V28.6452C369.937 26.5555 368.762 25.4191 366.5 25.4191C364.933 25.4191 363.455 25.9779 362.467 26.8608L361.73 25.6304C362.952 24.5832 364.752 23.9822 366.664 23.9822C369.802 23.9822 371.574 25.56 371.574 28.7204" fill="#112549"/>
<path d="M377.651 19.0608H376.014V36.2902H377.651V19.0608Z" fill="#112549"/>
<path d="M231.281 62.1742L231.948 60.85C233.099 61.9864 235.156 62.8223 237.278 62.8223C240.3 62.8223 241.615 61.545 241.615 59.9436C241.615 55.4872 231.677 58.2249 231.677 52.2094C231.677 49.8192 233.524 47.7483 237.628 47.7483C239.446 47.7483 241.34 48.2836 242.631 49.1899L242.053 50.5612C240.668 49.6548 239.055 49.2134 237.628 49.2134C234.676 49.2134 233.361 50.5377 233.361 52.1625C233.361 56.6189 243.298 53.9281 243.298 59.8497C243.298 62.24 241.405 64.2874 237.278 64.2874C234.858 64.2874 232.479 63.428 231.281 62.1742Z" fill="#112549"/>
<path d="M245.434 58.0418C245.434 54.3977 248.064 51.8385 251.683 51.8385C253.735 51.8385 255.465 52.6509 256.435 54.2522L255.213 55.088C254.383 53.8577 253.091 53.2754 251.688 53.2754C249.034 53.2754 247.099 55.1773 247.099 58.0371C247.099 60.8969 249.034 62.7988 251.688 62.7988C253.091 62.7988 254.383 62.24 255.213 61.0096L256.435 61.8455C255.465 63.4233 253.735 64.2592 251.683 64.2592C248.06 64.2592 245.434 61.6811 245.434 58.0371" fill="#112549"/>
<path d="M270.798 57.065V64.1465H269.161V57.2247C269.161 54.6466 267.823 53.3224 265.519 53.3224C262.913 53.3224 261.276 54.9472 261.276 57.7366V64.1465H259.639V46.9171H261.276V54.069C262.176 52.6509 263.766 51.8385 265.818 51.8385C268.77 51.8385 270.798 53.5572 270.798 57.065Z" fill="#112549"/>
<path d="M284.7 58.0418C284.7 55.1867 282.788 53.2801 280.2 53.2801C277.612 53.2801 275.681 55.182 275.681 58.0418C275.681 60.9016 277.616 62.8035 280.2 62.8035C282.783 62.8035 284.7 60.8969 284.7 58.0418ZM274.021 58.0418C274.021 54.4165 276.651 51.8385 280.2 51.8385C283.749 51.8385 286.36 54.4165 286.36 58.0418C286.36 61.6671 283.753 64.2639 280.2 64.2639C276.646 64.2639 274.021 61.6624 274.021 58.0418Z" fill="#112549"/>
<path d="M299.156 58.0418C299.156 55.1867 297.244 53.2801 294.661 53.2801C292.077 53.2801 290.142 55.182 290.142 58.0418C290.142 60.9016 292.077 62.8035 294.661 62.8035C297.244 62.8035 299.156 60.8969 299.156 58.0418ZM288.477 58.0418C288.477 54.4165 291.107 51.8385 294.656 51.8385C298.205 51.8385 300.812 54.4165 300.812 58.0418C300.812 61.6671 298.205 64.2639 294.656 64.2639C291.107 64.2639 288.477 61.6624 288.477 58.0418Z" fill="#112549"/>
<path d="M305.792 46.9171H304.156V64.1465H305.792V46.9171Z" fill="#112549"/>
<path d="M325.854 58.0418C325.854 55.1867 323.942 53.2801 321.354 53.2801C318.766 53.2801 316.835 55.182 316.835 58.0418C316.835 60.9016 318.771 62.8035 321.354 62.8035C323.938 62.8035 325.854 60.8969 325.854 58.0418ZM315.175 58.0418C315.175 54.4165 317.805 51.8385 321.354 51.8385C324.903 51.8385 327.514 54.4165 327.514 58.0418C327.514 61.6671 324.908 64.2639 321.354 64.2639C317.801 64.2639 315.175 61.6624 315.175 58.0418Z" fill="#112549"/>
<path d="M332.719 50.4954V51.9371H336.454V53.3318H332.765V64.1559H331.129V53.3318H328.96V51.9371H331.129V50.4297C331.129 48.2461 332.42 46.8044 334.794 46.8044C335.694 46.8044 336.617 47.058 337.214 47.5699L336.659 48.8002C336.198 48.4057 335.554 48.1944 334.859 48.1944C333.451 48.1944 332.714 48.9833 332.714 50.4954" fill="#112549"/>
<path d="M354.557 58.4128L350.682 49.683L346.807 58.4128H354.557ZM355.178 59.8075H346.187L344.247 64.1512H342.47L349.847 47.8939H351.531L358.913 64.1512H357.113L355.173 59.8075H355.178Z" fill="#112549"/>
<path d="M367.629 63.4046C366.981 63.9869 366.015 64.2639 365.069 64.2639C362.784 64.2639 361.515 62.9631 361.515 60.7091V53.3224H359.347V51.9277H361.515V49.2557H363.152V51.9277H366.841V53.3224H363.152V60.6152C363.152 62.0568 363.889 62.8457 365.251 62.8457C365.917 62.8457 366.589 62.6391 367.051 62.2212L367.629 63.4046Z" fill="#112549"/>
<path d="M381.759 57.065V64.1465H380.122V57.2247C380.122 54.6466 378.784 53.3224 376.48 53.3224C373.873 53.3224 372.236 54.9472 372.236 57.7366V64.1465H370.6V46.9171H372.236V54.069C373.136 52.6509 374.727 51.8385 376.779 51.8385C379.73 51.8385 381.759 53.5572 381.759 57.065Z" fill="#112549"/>
<path d="M386.623 57.3233H395.227C395.017 54.9331 393.287 53.2613 390.913 53.2613C388.54 53.2613 386.833 54.9331 386.623 57.3233ZM396.77 58.5536H386.623C386.809 61.1082 388.745 62.8035 391.398 62.8035C392.877 62.8035 394.187 62.2681 395.11 61.2022L396.034 62.2728C394.952 63.5736 393.268 64.2686 391.352 64.2686C387.57 64.2686 384.986 61.6671 384.986 58.0465C384.986 54.4259 387.5 51.8432 390.913 51.8432C394.327 51.8432 396.794 54.3743 396.794 58.0465C396.794 58.1874 396.77 58.3705 396.77 58.5583" fill="#112549"/>
<path d="M411.292 57.065V64.1465H409.655V57.2247C409.655 54.6466 408.317 53.3224 406.013 53.3224C403.406 53.3224 401.77 54.9472 401.77 57.7366V64.1465H400.133V51.9324H401.7V54.1864C402.576 52.6978 404.213 51.8385 406.312 51.8385C409.264 51.8385 411.292 53.5572 411.292 57.065Z" fill="#112549"/>
<path d="M414.058 62.7565L414.794 61.4557C415.764 62.2212 417.401 62.8269 419.108 62.8269C421.416 62.8269 422.358 62.038 422.358 60.8312C422.358 57.6473 414.496 60.155 414.496 55.3275C414.496 53.3318 416.203 51.8432 419.295 51.8432C420.862 51.8432 422.568 52.2846 423.585 52.9796L422.871 54.3038C421.813 53.5619 420.544 53.2566 419.299 53.2566C417.108 53.2566 416.138 54.116 416.138 55.2759C416.138 58.5724 424 56.0883 424 60.7795C424 62.8927 422.153 64.2639 418.996 64.2639C416.991 64.2639 415.051 63.6112 414.062 62.7565" fill="#112549"/>
<path d="M208.435 18.3517H207.651V63.4233H208.435V18.3517Z" fill="#112549"/>
</g>
<defs>
<clipPath id="clip0_11872_4021">
<rect width="424" height="80" fill="white"/>
</clipPath>
</defs>
</svg>
